**ABCDEFGHIJKLMNOPQRSTUVWXYZabcdefghijklmnopqrstuvwxyz**************************
**PARASOLID !"#$%&'()*+,-./:;<=>?@[\]^_`{|}~0123456789**************************
**PART1;
MC=unknown;
MC_MODEL=unknown;
MC_ID=unknown;
OS=unknown;
OS_RELEASE=unknown;
FRU=Parasolid 37.1.212;
APPL=Onshape;
SITE=unknown;
USER=unknown;
FORMAT=text;
GUISE=transmit;
KEY=BTGapi::writeModels_.xmt;
FILE=BTGapi::writeModels_.xmt;
DATE=2026-05-28T02:19:58 (UTC);
**PART2;
SCH=SCH_3701212_37102;
USFLD_SIZE=0;
**PART3;
**END_OF_HEADER*****************************************************************
T51 : TRANSMIT FILE created by modeller version 370121223 SCH_3701212_37102_1300
6239 0 12 36 CCCI7 lattice222 0 CCCI4 mesh1006 0 I8 polyline1008 0 CCCCCCCDI5 ow
ner1040 0 CCCI16 boundary_lattice222 0 CCCI13 boundary_mesh1006 0 I17 boundary_p
olyline1008 0 CCCA16 index_map_offset0 0 1 dA9 index_map82 0 A17 node_id_index_m
ap82 0 A20 schema_embedding_map82 0 A5 child12 0 A14 lowest_node_id0 0 1 dA16 me
sh_offset_data206 0 Z1 346 2 3 0 0 0 0 0 0 0 1e3 1e-8 0 4 5 1 0 1 2 6 0 7 8 0 0
 0 9 10 0 0 0 0 0 0 0 0 81 255 1 2 339 11 1 12 0 0 0 13 70 11 CI9 list_type0 0 1
 uI10 notransmit0 0 1 lCCCDCCDI12 finger_index0 0 1 dI12 finger_block1012 0 CZ3
 0 4 T1 0 0 5 20 1 14 14 13 255 6 39 0 1 0 15 0 0 16 0 67 255 7 38 0 17 18 0 0 +
19 0 0 -1 ?134 255 8 79 0 20 21 0 0 -22 23 19 9 CCCCCCI5 frame230 0 CA5 owner12
 0 Z9 13 0 1 16 0 24 0 V0 16 255 10 7 25 ?27 0 30 19 0 0 1 81 1 25 321 29 10 0 0
 26 28 34 17 255 27 0 35 27 27 0 32 10 0 0 +16 30 28 26 ?33 10 31 38 0 0 1 134 1
9 9 0 10 40 38 36 +39 37 134 40 287 0 31 41 19 0 -45 43 134 38 33 0 30 19 42 0 +
44 46 141 255 36 7 36 36 19 136 255 39 3 7 3 7 6 TTF2 50 48 47 135 255 37 2 0 45
 255 21 50 -.01430453024804592 .0093837708234787 .003048 -.0181693846781139 .005
58735449202747 .003048 -.0238009202920175 -.0284856503632266 .003048 .0477823226
092453 -.00624057420737605 .003048 -.001979493476382085 .00306549797172219 .0030
48 -.01128040855126944 .0123543419551154 .003048 -.01430453024804592 .0093837708
234787 .003048 127 255 7 48 1 3 1 1 1 3 1 128 255 7 47 -.1883680562882265 0 .240
736051596358 .547935653809862 .811631943711773 1 1.240736051596358 134 42 58 0 4
9 38 51 0 -55 52 136 44 3 7 3 7 6 TTF2 53 54 57 135 46 2 0 45 21 53 -.0143045302
4804592 .0093837708234787 -.003048 -.0181693846781139 .00558735449202747 -.00304
8 -.0238009202920175 -.0284856503632266 -.003048 .0477823226092453 -.00624057420
737605 -.003048 -.001979493476382085 .00306549797172219 -.003048 -.0112804085512
6944 .0123543419551154 -.003048 -.01430453024804592 .0093837708234787 -.003048 1
27 7 54 1 3 1 1 1 3 1 128 7 57 -.1883680562882265 0 .240736051596358 .5479356538
09862 .811631943711773 1 1.240736051596358 16 49 235 60 ?59 56 0 42 0 0 1 134 51
 65 0 58 42 21 0 -63 65 136 55 3 7 3 7 6 TTF2 61 64 62 135 52 2 0 45 21 61 .0156
7776426672935 -.0027464697137475 -.003048 .01485194967125548 -.00320623830705258
5 -.003048 .0158294033903444 -.00739452366370292 -.003048 .01922824946993275 -.0
1341424568979786 -.003048 .0210935882570028 -.00482832434230052 -.003048 .016518
01558803465 -.00227866353771643 -.003048 .01567776426672935 -.0027464697137475 -
.003048 127 7 64 1 3 1 1 1 3 1 128 7 62 -.2474442112112075 0 .243192763881992 .4
85781309320467 .752555788788793 1 1.243192763881992 16 58 199 67 ?69 70 56 51 0
 0 1 134 21 72 0 66 51 8 0 -68 75 136 63 3 7 3 7 6 TTF2 71 73 72 135 65 2 0 45 2
1 71 .00698061045259237 -113841228110978e-33 -.003048 .00615244776919721 -.00017
48518022256465 -.003048 .00600470796509139 -.00566442503289354 -.003048 .0115463
3443915564 -.01792334485052795 -.003048 .01172117319615556 -.00505989035310601 -
.003048 .00788812276482699 .0001916050632535815 -.003048 .00698061045259237 -113
841228110978e-33 -.003048 127 7 73 1 3 1 1 1 3 1 128 7 72 -.2394887576066145 0 .
2185487177073065 .496703015107759 .760511242393386 1 1.218548717707306 16 66 163
 74 ?77 80 70 21 0 0 1 136 68 3 7 3 7 6 TTF2 79 76 78 135 75 2 0 45 21 79 -.0042
341404594481 .002059852285310625 -.003048 -.00496551367200908 .00188155150249134
5 -.003048 -.00430850413854148 -.00591315158851058 -.003048 .003510641912710475
 -.0175601532292418 -.003048 .00042465880685571 -.00524791281491103 -.003048 -.0
034539020033983 .002250065879560615 -.003048 -.0042341404594481 .002059852285310
625 -.003048 127 7 76 1 3 1 1 1 3 1 128 7 78 -.252818245904693 0 .23698459268142
75 .501265057240581 .747181754095307 1 1.236984592681428 81 1 74 323 29 66 0 0 2
8 67 81 17 77 0 85 77 77 0 82 66 0 0 +16 80 160 83 ?84 20 66 41 0 0 1 16 70 196
 88 ?89 66 58 87 0 0 1 81 1 88 328 29 70 0 0 83 90 86 17 89 0 94 89 89 0 95 70 0
 0 +134 87 289 0 70 92 41 0 -93 91 134 92 290 0 56 98 87 0 -100 96 134 41 288 0
 80 87 40 0 -99 97 136 93 3 7 3 7 6 TTF2 101 105 103 135 91 2 0 45 21 101 .00698
061045259237 -113841228110978e-33 .003048 .00615244776919721 -.00017485180222564
65 .003048 .00600470796509139 -.00566442503289354 .003048 .01154633443915564 -.0
1792334485052795 .003048 .01172117319615556 -.00505989035310601 .003048 .0078881
2276482699 .0001916050632535815 .003048 .00698061045259237 -113841228110978e-33
 .003048 127 7 105 1 3 1 1 1 3 1 128 7 103 -.2394887576066145 0 .218548717707306
5 .496703015107759 .760511242393386 1 1.218548717707306 136 99 3 7 3 7 6 TTF2 10
2 104 106 135 97 2 0 45 21 102 -.0042341404594481 .002059852285310625 .003048 -.
00496551367200908 .001881551502491345 .003048 -.00430850413854148 -.005913151588
51058 .003048 .003510641912710475 -.0175601532292418 .003048 .00042465880685571
 -.00524791281491103 .003048 -.0034539020033983 .002250065879560615 .003048 -.00
42341404594481 .002059852285310625 .003048 127 7 104 1 3 1 1 1 3 1 128 7 106 -.2
52818245904693 0 .2369845926814275 .501265057240581 .747181754095307 1 1.2369845
92681428 16 56 232 90 ?110 58 49 92 0 0 1 134 98 292 0 1 108 92 107 +109 111 136
 100 3 7 3 7 6 TTF2 115 112 113 135 96 2 0 45 21 115 .01567776426672935 -.002746
4697137475 .003048 .01485194967125548 -.003206238307052585 .003048 .015829403390
3444 -.00739452366370292 .003048 .01922824946993275 -.01341424568979786 .003048
 .0210935882570028 -.00482832434230052 .003048 .01651801558803465 -.002278663537
71643 .003048 .01567776426672935 -.0027464697137475 .003048 127 7 112 1 3 1 1 1
 3 1 128 7 113 -.2474442112112075 0 .243192763881992 .485781309320467 .752555788
788793 1 1.243192763881992 134 108 294 0 1 114 98 117 +120 119 141 107 116 107 1
07 98 136 109 3 7 3 7 6 TTF2 118 123 125 135 111 2 0 45 21 118 .0156777642667293
5 -.0027464697137475 .01524 .01485194967125548 -.003206238307052585 .01524 .0158
294033903444 -.00739452366370292 .01524 .01922824946993275 -.01341424568979786 .
01524 .0210935882570028 -.00482832434230052 .01524 .01651801558803465 -.00227866
353771643 .01524 .01567776426672935 -.0027464697137475 .01524 127 7 123 1 3 1 1
 1 3 1 128 7 125 -.2474442112112075 0 .243192763881992 .485781309320467 .7525557
88788793 1 1.243192763881992 67 116 275 0 121 124 122 0 +98 0 0 -1 .004029017225
740405 14 255 121 254 127 ?129 17 130 6 116 +0 0 129 17 24 67 124 278 0 129 126
 116 0 +108 0 0 -1 .00614397360811765 50 255 122 3 0 15 116 18 0 +.0044437470410
03275 -.003756548612476355 .003048 0 0 1 1 0 0 14 15 1 128 ?135 0 131 6 122 +0 0
 135 0 24 50 18 32 0 135 122 7 0 +.004443747041003275 -.003756548612476355 -.003
048 0 0 1 1 0 0 14 135 23 133 ?17 15 132 6 18 -0 0 17 15 24 81 1 133 341 134 135
 137 0 128 140 139 14 17 35 140 ?121 135 136 6 7 -0 0 121 135 24 15 255 132 27 0
 138 135 141 13 24 14 0 0 0 0 0 0 9 15 17 138 0 132 138 138 0 33 30 0 0 -15 141
 57 0 145 135 142 17 145 0 141 145 145 0 59 49 0 0 -15 142 64 0 143 135 144 17 1
43 0 142 143 143 0 69 58 0 0 -15 144 71 0 82 135 148 17 82 0 144 82 82 0 77 66 0
 0 -15 148 78 0 149 135 0 17 149 0 148 149 149 0 147 20 0 0 -17 147 0 150 147 14
7 0 149 20 0 0 +16 20 127 28 ?147 31 80 8 0 0 1 81 1 28 322 29 20 0 0 25 74 146
 16 31 124 154 ?155 30 20 40 0 0 1 81 1 154 326 29 31 0 0 60 83 152 17 155 0 153
 155 155 0 151 31 0 0 +15 153 102 0 155 15 0 17 151 0 158 151 151 0 155 31 0 0 -
15 158 144 0 151 160 150 14 160 146 156 ?0 159 158 6 157 +0 0 0 159 24 15 150 14
5 0 147 160 0 81 1 156 346 134 160 161 0 165 0 163 14 159 182 165 ?160 129 162 6
 126 +0 0 160 129 24 67 157 284 0 160 0 126 0 +164 0 0 -1 .01391100304125042 67
 126 281 0 159 157 124 0 +114 0 0 -1 .01192387254261496 134 164 298 0 1 0 114 16
6 +170 168 134 114 296 0 1 164 108 167 +169 171 141 166 157 166 166 164 136 170
 3 7 3 7 6 TTF2 175 172 173 135 168 2 0 45 21 175 -.01178693175315856 .005492939
427495 .01524 -.0127510243438907 .00546445667670842 .01524 -.0184834917701042 -.
00706782052146347 .01524 -.0025448146247539 -.0183844371724489 .01524 -.01252822
605269466 -.00579471854228194 .01524 -.01085944849313582 .00552034060743135 .015
24 -.01178693175315856 .005492939427495 .01524 127 7 172 1 3 1 1 1 3 1 128 7 173
 -.249008056405588 0 .258836824944258 .513551987155488 .750991943594412 1 1.2588
36824944258 141 167 126 167 167 114 136 169 3 7 3 7 6 TTF2 174 177 180 135 171 2
 0 45 21 174 -.0042341404594481 .002059852285310625 .01524 -.00496551367200908 .
001881551502491345 .01524 -.00430850413854148 -.00591315158851058 .01524 .003510
641912710475 -.0175601532292418 .01524 .00042465880685571 -.00524791281491103 .0
1524 -.0034539020033983 .002250065879560615 .01524 -.0042341404594481 .002059852
285310625 .01524 127 7 177 1 3 1 1 1 3 1 128 7 180 -.252818245904693 0 .23698459
26814275 .501265057240581 .747181754095307 1 1.236984592681428 81 1 165 345 134
 159 179 0 176 156 178 14 129 218 176 ?159 121 183 6 124 +0 0 159 121 24 15 162
 180 0 185 159 85 17 185 0 162 185 185 0 84 80 0 0 -15 85 181 0 77 159 0 17 84 0
 131 84 84 0 185 80 0 0 +15 131 96 0 84 15 181 15 181 84 0 110 15 35 17 110 0 18
1 110 110 0 184 56 0 0 +15 35 6 0 27 15 94 15 94 90 0 89 15 153 17 184 0 130 184
 184 0 110 56 0 0 -15 130 252 0 184 121 182 15 182 253 0 59 121 0 17 59 0 182 59
 59 0 145 49 0 0 +81 1 176 344 134 129 187 0 127 165 189 15 183 216 0 95 129 190
 17 95 0 183 95 95 0 89 70 0 0 -15 190 217 0 69 129 0 17 69 0 190 69 69 0 143 58
 0 0 +80 7 CCCCCDI12 legal_owners0 17 1 lCZ1 134 0 186 8001 0 0 0 0 3 5 0 0 0 FF
FFTFTFFFFFFFFFF2 81 1 187 333 29 129 0 176 179 188 195 81 1 127 343 134 121 188
 0 140 176 191 83 255 3 189 .615686274509804 .811764705882353 .929411764705882 8
1 1 188 334 29 121 0 127 187 137 193 81 1 140 342 134 17 192 0 133 127 194 83 3
 191 .615686274509804 .811764705882353 .929411764705882 81 1 192 330 29 17 0 140
 90 161 197 83 3 194 .615686274509804 .811764705882353 .929411764705882 80 1 29
 200 199 9000 0 0 0 0 3 6 0 0 0 FFTFTFTTFFFFFFFFF1 81 1 90 329 29 56 0 0 88 192
 196 81 1 161 331 29 160 0 156 192 179 198 82 255 3 197 11 0 2 81 1 179 332 29 1
59 0 165 161 187 201 82 3 198 11 1 2 82 3 201 11 2 2 82 3 196 11 9 1 79 255 9 19
9 BTI/DetId81 1 137 335 29 135 0 133 188 205 202 82 3 193 11 4 2 81 1 205 336 29
 15 0 128 137 0 203 82 3 202 11 5 2 81 1 128 340 134 15 205 0 0 133 204 82 3 203
 11 6 2 83 3 204 .615686274509804 .811764705882353 .929411764705882 82 3 195 11
 3 2 79 15 186 SDL/TYSA_COLOUR83 3 178 .615686274509804 .811764705882353 .929411
764705882 83 3 163 .615686274509804 .811764705882353 .929411764705882 81 1 60 32
5 29 49 0 0 67 154 208 81 1 83 327 29 80 0 0 154 88 209 82 3 152 11 6 1 82 3 209
 11 7 1 81 1 67 324 29 58 0 0 74 60 207 82 3 208 11 5 1 82 3 207 11 4 1 82 3 146
 11 2 1 17 33 0 210 33 33 0 138 30 0 0 +15 210 36 0 33 17 0 15 136 34 0 32 17 21
0 17 32 0 136 32 32 0 27 10 0 0 -83 3 139 .615686274509804 .811764705882353 .929
411764705882 141 117 124 117 117 108 136 120 3 7 3 7 6 TTF2 206 214 215 135 119
 2 0 45 21 206 .00698061045259237 -113841228110978e-33 .01524 .00615244776919721
 -.0001748518022256465 .01524 .00600470796509139 -.00566442503289354 .01524 .011
54633443915564 -.01792334485052795 .01524 .01172117319615556 -.00505989035310601
 .01524 .00788812276482699 .0001916050632535815 .01524 .00698061045259237 -11384
1228110978e-33 .01524 127 7 214 1 3 1 1 1 3 1 128 7 215 -.2394887576066145 0 .21
85487177073065 .496703015107759 .760511242393386 1 1.218548717707306 82 3 86 11
 8 1 82 3 81 11 3 1 136 45 3 7 3 7 6 TTF2 212 213 211 135 43 2 0 45 21 212 -.011
78693175315856 .005492939427495 .003048 -.0127510243438907 .00546445667670842 .0
03048 -.0184834917701042 -.00706782052146347 .003048 -.0025448146247539 -.018384
4371724489 .003048 -.01252822605269466 -.00579471854228194 .003048 -.01085944849
313582 .00552034060743135 .003048 -.01178693175315856 .005492939427495 .003048 1
27 7 213 1 3 1 1 1 3 1 128 7 211 -.249008056405588 0 .258836824944258 .513551987
155488 .750991943594412 1 1.258836824944258 81 1 26 320 29 30 0 0 218 25 220 81
 1 218 49 29 1 0 216 0 26 219 82 3 220 11 0 1 81 1 216 337 217 1 218 12 0 0 221
 82 3 219 6 0 3 80 1 217 225 223 8038 0 0 0 0 0 0 0 0 0 TTTTTTTTTTTTTFTFT10 81 1
 12 338 225 1 216 2 0 0 222 98 255 6 221 80 97 114 116 32 49 80 1 225 224 226 80
17 0 0 0 0 0 0 0 0 0 TTTTTTTTTTTTTFTFT3 84 255 6 222 Part 179 13 226 SDL/TYSA_NA
ME79 14 223 SDL/TYSA_UNAME82 3 34 11 1 1 19 16 40 0 1 0 9 6 0 S0 136 22 3 7 3 7
 6 TTF2 230 228 227 135 23 2 0 45 21 230 -.01178693175315856 .005492939427495 -.
003048 -.0127510243438907 .00546445667670842 -.003048 -.0184834917701042 -.00706
782052146347 -.003048 -.0025448146247539 -.0183844371724489 -.003048 -.012528226
05269466 -.00579471854228194 -.003048 -.01085944849313582 .00552034060743135 -.0
03048 -.01178693175315856 .005492939427495 -.003048 127 7 228 1 3 1 1 1 3 1 128
 7 227 -.249008056405588 0 .258836824944258 .513551987155488 .750991943594412 1
 1.258836824944258 74 4 CI16 index_map_offset0 0 1 dCCZ20 14 5 0 0 205 216 12 2
 156 0 0 0 0 0 0 0 0 0 0 0 0 0 0 0 80 1 11 134 229 8040 0 0 0 0 3 5 0 0 0 TTTFFF
FFFFFFFFFFF2 83 3 13 .615686274509804 .811764705882353 .929411764705882 79 17 22
9 SDL/TYSA_COLOUR_21 0 
